<svg width="28" height="28" viewBox="0 0 28 28" fill="none" xmlns="http://www.w3.org/2000/svg">
<g clip-path="url(#clip0_174_795)">
<path d="M20.3273 0.315L15.9523 5.565C15.7335 5.82575 15.6898 6.18975 15.8315 6.496C15.9768 6.804 16.2848 7 16.6243 7L19.2493 7L19.2493 8.46475C19.2493 9.67925 18.6333 10.7887 17.6043 11.4327L8.5393 17.0992C6.47955 18.3855 5.2493 20.6045 5.2493 23.0352L5.2493 26.25C5.2493 27.2165 6.0328 28 6.9993 28C7.9658 28 8.7493 27.2165 8.7493 26.25L8.7493 23.0352C8.7493 21.8207 9.3653 20.7112 10.3943 20.0672L19.4593 14.4007C21.519 13.1127 22.7493 10.8937 22.7493 8.46475L22.7493 7L25.3743 7C25.7138 7 26.0218 6.804 26.167 6.496C26.2213 6.37875 26.2493 6.251 26.2493 6.125C26.2493 5.92375 26.181 5.72425 26.0463 5.565L21.6713 0.315C21.505 0.11375 21.2583 -6.99776e-07 20.9993 -6.88454e-07C20.7403 -6.77133e-07 20.4935 0.11375 20.3273 0.315Z" fill="#474C5D"/>
<path d="M6.3274 0.315152L1.9524 5.56515C1.7354 5.8259 1.6899 6.1899 1.8334 6.49615C1.97515 6.80415 2.2849 7.00015 2.6244 7.00015L5.2494 7.00015L5.2494 8.4649C5.2494 10.8957 6.47965 13.1147 8.5394 14.4009L9.0469 14.7177L12.3492 12.6544L10.3944 11.4329C9.3654 10.7889 8.7494 9.6794 8.7494 8.4649L8.7494 7.00015L11.3744 7.00015C11.7139 7.00015 12.0236 6.80415 12.1672 6.49615C12.2214 6.3789 12.2494 6.25115 12.2494 6.12515C12.2494 5.9239 12.1794 5.7244 12.0464 5.56515L7.6714 0.315152C7.50515 0.113902 7.2584 0.000151393 6.9994 0.000151405C6.7404 0.000151416 6.49365 0.113902 6.3274 0.315152Z" fill="white"/>
<path d="M15.6495 18.8458L17.6043 20.0655C18.6333 20.7095 19.2493 21.8208 19.2493 23.0353L19.2493 26.25C19.2493 27.2165 20.0328 28 20.9993 28C21.9658 28 22.7493 27.2165 22.7493 26.25L22.7493 23.0353C22.7493 20.6063 21.519 18.3873 19.4593 17.0993L18.9518 16.7825L15.6495 18.8458Z" fill="white"/>
</g>
<defs>
<clipPath id="clip0_174_795">
<rect width="28" height="28" fill="white" transform="translate(0 28) rotate(-90)"/>
</clipPath>
</defs>
</svg>
