<svg width="80" height="154" viewBox="0 0 80 154" fill="none" xmlns="http://www.w3.org/2000/svg">
<g clip-path="url(#clip0_93_2152)">
<path d="M33.6387 94.7315C32.7545 95.242 31.9221 95.8104 31.1326 96.4209C30.1699 96.8174 29.2843 97.2455 28.4425 97.7315C24.2137 100.173 21.0455 103.817 19.0434 108.112C19.043 108.113 19.0418 108.115 19.0415 108.116C18.0266 110.295 17.3144 112.641 16.914 115.084C16.8948 115.144 16.8895 115.205 16.8821 115.268C16.5159 117.602 16.4398 120.022 16.66 122.466C16.6607 122.523 16.6658 122.578 16.6769 122.635C16.84 124.337 17.1439 126.05 17.601 127.753C17.61 127.859 17.6452 127.96 17.689 128.062C18.404 130.622 19.4514 133.158 20.8589 135.596C23.0604 139.409 25.9017 142.589 29.1159 145.054C29.149 145.083 29.1806 145.11 29.2175 145.134C31.1281 146.587 33.17 147.786 35.2871 148.715C35.3447 148.74 35.3976 148.772 35.459 148.786C37.5939 149.706 39.8035 150.347 42.0322 150.696C42.1049 150.719 42.1796 150.725 42.2561 150.731C47.4652 151.5 52.766 150.661 57.4425 147.961C58.2843 147.475 59.0979 146.922 59.9226 146.287C60.8461 145.908 61.7545 145.472 62.6387 144.961C74.8159 137.931 78.2178 120.945 70.2223 107.096C62.2268 93.2477 45.8159 87.701 33.6387 94.7315ZM25.7878 102.295C25.5954 102.598 25.4094 102.904 25.2301 103.215C25.1209 103.404 25.009 103.593 24.9049 103.784C24.7521 104.068 24.6091 104.356 24.467 104.646L22.799 105.609C23.7231 104.285 24.7747 103.055 25.985 101.969C25.9157 102.075 25.8561 102.188 25.7878 102.295ZM38.7639 144.889L35.6575 146.682C34.2707 146.044 32.9231 145.276 31.6267 144.391L34.9072 142.497C35.2206 142.726 35.5364 142.949 35.8558 143.164C35.9921 143.256 36.1305 143.343 36.2675 143.433C36.6479 143.68 37.0318 143.917 37.4195 144.144C37.5617 144.228 37.7026 144.314 37.8455 144.396C38.1493 144.568 38.456 144.729 38.7639 144.889ZM18.7283 122.97L22.0426 121.056C22.1091 121.524 22.1869 121.99 22.2758 122.456C22.3 122.584 22.3238 122.712 22.3489 122.839C22.4384 123.284 22.5393 123.727 22.6488 124.171L19.2661 126.124C19.026 125.072 18.8482 124.02 18.7283 122.97ZM22.5909 134.596C22.2539 134.013 21.9531 133.42 21.6585 132.825L25.1113 130.832C25.1185 130.846 25.1265 130.86 25.1336 130.874C25.4246 131.452 25.7265 132.027 26.055 132.596C26.2225 132.886 26.3989 133.168 26.5741 133.451L23.1247 135.443C22.9482 135.159 22.7594 134.888 22.5909 134.596ZM27.6728 135.126C27.9162 135.472 28.1677 135.809 28.4224 136.143C28.4409 136.167 28.4581 136.193 28.4771 136.217C28.8192 136.662 29.1726 137.094 29.5331 137.516L26.1175 139.488C25.4576 138.735 24.8247 137.947 24.2295 137.114L27.6728 135.126ZM23.2098 126.156C23.2467 126.272 23.2877 126.387 23.3255 126.503C23.3677 126.63 23.4093 126.756 23.4523 126.882C23.6606 127.487 23.8827 128.09 24.1301 128.688C24.1416 128.716 24.1554 128.744 24.1674 128.773C24.2004 128.852 24.2368 128.929 24.2698 129.008L20.8326 130.993C20.4379 130.045 20.0805 129.092 19.7898 128.131L23.2098 126.156ZM30.9167 139.027C31.0051 139.118 31.0922 139.211 31.1823 139.301C31.2133 139.333 31.244 139.366 31.2759 139.397C31.7237 139.843 32.184 140.27 32.6523 140.683C32.7493 140.769 32.8484 140.853 32.9472 140.938C33.0351 141.014 33.1221 141.091 33.2104 141.166L29.8727 143.093C29.059 142.441 28.2757 141.737 27.5214 140.986L30.9167 139.027ZM21.731 116.485C21.7301 116.649 21.7342 116.814 21.736 116.98C21.7393 117.429 21.7529 117.881 21.776 118.333C21.785 118.496 21.7916 118.66 21.8033 118.824C21.8045 118.844 21.8052 118.863 21.8073 118.883L18.5605 120.757C18.5026 119.143 18.5903 117.551 18.8087 115.995L21.8424 114.244C21.8243 114.456 21.8043 114.668 21.7911 114.881C21.7571 115.412 21.7359 115.947 21.731 116.485ZM20.8173 109.062L23.2101 107.681C23.1042 107.991 22.9993 108.304 22.9036 108.62C22.8238 108.888 22.7527 109.158 22.6802 109.429C22.6089 109.697 22.5404 109.967 22.4779 110.238C22.4163 110.504 22.3529 110.768 22.2981 111.035C22.2504 111.27 22.2118 111.508 22.17 111.745L19.3104 113.396C19.682 111.892 20.1823 110.44 20.8173 109.062ZM38.0007 147.639L40.9729 145.923C41.1448 145.994 41.3162 146.067 41.4892 146.135C41.9402 146.312 42.3937 146.478 42.85 146.63C43.1092 146.717 43.3688 146.795 43.6298 146.873C43.8967 146.953 44.1638 147.03 44.4321 147.102C44.5432 147.133 44.6542 147.169 44.7653 147.197L42.1603 148.701C40.7599 148.472 39.3685 148.116 38.0007 147.639ZM52.544 147.971C50.3167 148.699 47.997 149.015 45.6613 148.989L47.7563 147.78C47.9125 147.801 48.0689 147.815 48.225 147.834C48.4884 147.864 48.7507 147.896 49.0141 147.919C49.4865 147.959 49.9594 147.986 50.4311 147.999C50.6505 148.005 50.8681 148.002 51.0862 148.002C51.4456 148.002 51.804 147.995 52.1619 147.979C52.2901 147.973 52.4177 147.978 52.544 147.971ZM61.6387 143.229C60.9511 143.626 60.2477 143.978 59.5321 144.288L59.1608 144.439C59.1148 144.457 59.0684 144.475 59.0229 144.494C58.6971 144.626 58.3693 144.748 58.0392 144.863C58.0151 144.871 57.9918 144.878 57.9677 144.887C57.6445 144.997 57.3205 145.1 56.9946 145.193C56.951 145.206 56.9078 145.217 56.8645 145.228C56.5574 145.314 56.2495 145.395 55.9398 145.466C55.8563 145.485 55.7725 145.5 55.6893 145.518C55.4178 145.578 55.1462 145.636 54.8735 145.683C54.6798 145.718 54.4847 145.744 54.2911 145.773C54.1255 145.798 53.9605 145.826 53.7946 145.847C48.0009 146.564 41.9042 144.92 36.6975 141.326C36.6507 141.293 36.6048 141.259 36.558 141.226C36.2756 141.029 35.9946 140.826 35.7177 140.616C35.6093 140.535 35.5033 140.449 35.3962 140.366C35.1828 140.2 34.9707 140.033 34.7606 139.861C34.6281 139.751 34.4973 139.639 34.3655 139.526C34.1856 139.373 34.0061 139.218 33.8276 139.059C33.6842 138.93 33.5428 138.799 33.4018 138.667C33.2395 138.516 33.0785 138.363 32.9181 138.207C32.773 138.066 32.63 137.922 32.4878 137.778C32.3352 137.624 32.1841 137.466 32.0343 137.307C31.8923 137.157 31.7514 137.005 31.6122 136.85C31.4658 136.688 31.322 136.523 31.179 136.357C31.0432 136.2 30.9069 136.042 30.7741 135.882C30.6302 135.709 30.4896 135.531 30.3485 135.353C30.2221 135.194 30.0961 135.036 29.9721 134.873C29.8252 134.68 29.6829 134.482 29.5403 134.285C29.4285 134.131 29.3154 133.979 29.2065 133.823C29.0468 133.594 28.8929 133.36 28.7386 133.124C28.6518 132.992 28.5625 132.863 28.4774 132.73C28.2411 132.361 28.0101 131.983 27.7871 131.596C27.5641 131.21 27.3521 130.821 27.1472 130.43C27.0743 130.29 27.007 130.147 26.9363 130.007C26.8102 129.756 26.6835 129.505 26.5653 129.252C26.4842 129.08 26.4092 128.906 26.332 128.732C26.2327 128.51 26.1328 128.287 26.0388 128.064C25.9603 127.876 25.8867 127.687 25.8113 127.498C25.7279 127.288 25.6453 127.077 25.5659 126.865C25.4932 126.669 25.425 126.473 25.3567 126.277C25.2847 126.07 25.2145 125.862 25.147 125.655C25.0836 125.458 25.0224 125.26 24.9621 125.061C24.8989 124.852 24.8393 124.643 24.7806 124.433C24.7262 124.237 24.6738 124.042 24.6239 123.845C24.5684 123.629 24.5173 123.413 24.4676 123.197C24.4277 123.01 24.3837 122.821 24.3446 122.634C24.2957 122.401 24.2513 122.168 24.2085 121.934C24.1773 121.764 24.1443 121.595 24.1166 121.425C24.0719 121.157 24.0338 120.889 23.9972 120.622C23.9783 120.487 23.9573 120.353 23.9407 120.218C23.8976 119.873 23.8631 119.53 23.833 119.186C23.8278 119.129 23.8203 119.072 23.8165 119.015C23.3067 112.708 24.9323 106.606 28.4496 101.948C28.5505 101.815 28.658 101.687 28.7621 101.555C28.8846 101.401 29.0047 101.245 29.1305 101.095C29.3096 100.883 29.4947 100.676 29.6813 100.471C29.7385 100.408 29.7941 100.343 29.8518 100.28C30.0685 100.048 30.2924 99.8216 30.5205 99.5987C30.5531 99.5672 30.5839 99.5344 30.6156 99.5034C30.8595 99.2679 31.1105 99.0387 31.3677 98.814C31.3868 98.7972 31.4051 98.7808 31.4242 98.764C31.6883 98.5353 31.9581 98.3126 32.2349 98.0962C32.2739 98.0656 32.3123 98.0342 32.3518 98.0045L32.6681 97.7584C33.2947 97.2938 33.9511 96.8606 34.6387 96.4636C45.8606 89.9846 61.0463 95.2029 68.4903 108.096C75.9343 120.99 72.8606 136.75 61.6387 143.229Z" fill="#2B64F6"/>
<path d="M18.1202 118.09C18.3405 110.093 21.9907 104.691 26.5853 101.317C24.4755 105.26 22.3247 110.703 22.6455 117.214C22.9663 123.725 28.1176 136.459 34.0075 140.536C40.2152 144.833 52.2783 148.522 55.1184 147.244C55.2119 147.197 55.2849 147.157 55.3341 147.126C55.2696 147.169 55.1976 147.209 55.1184 147.244C54.2467 147.689 51.5934 148.801 49.7679 149.473C47.2413 150.404 41.2568 149.739 34.8144 147.561C28.3719 145.383 23.1086 136.734 21.192 133.68C19.2754 130.626 17.8998 126.087 18.1202 118.09Z" fill="#2B64F6"/>
<path d="M53.1472 116.729C52.0225 116.801 50.8307 117.009 49.6064 117.347C48.8985 117.54 48.3912 117.68 48.0843 117.762L43.6163 110.023C44.0545 109.874 44.4951 109.774 44.9323 109.721C46.7032 109.48 48.0282 109.833 49.6089 110.343L50.6499 112.146C50.9499 112.666 51.4786 112.807 51.9982 112.507C52.5178 112.207 52.6603 111.678 52.3603 111.159L49.2758 105.816C48.9758 105.296 48.4463 105.155 47.9275 105.455C47.4088 105.754 47.2668 106.284 47.5663 106.803L48.2238 107.942C47.936 107.901 47.9663 107.646 47.5666 107.608C46.0253 107.456 44.3651 107.69 42.6248 108.306L41.9103 107.069C41.6103 106.549 41.0816 106.407 40.562 106.707C40.0424 107.007 39.9013 107.537 40.2008 108.056L40.8453 109.172C38.6489 110.49 37.2792 111.959 36.7727 113.544C36.2414 115.21 36.4673 116.913 37.4453 118.607C37.9638 119.505 38.69 120.161 39.6025 120.555C40.4893 120.939 41.5323 121.096 42.7029 121.019C43.762 120.952 45.2712 120.666 47.1951 120.168L51.9771 128.451C51.4823 128.634 51.0031 128.764 50.547 128.838C48.6753 129.138 47.7825 129.169 46.2958 128.705L45.1743 126.762C44.8743 126.242 44.3448 126.101 43.826 126.401C43.3073 126.7 43.1639 127.23 43.4639 127.75L46.5484 133.092C46.8484 133.612 47.3771 133.753 47.8967 133.453C48.4163 133.153 48.5574 132.624 48.2579 132.105L47.5999 130.965C49.7881 131.301 51.056 130.959 52.9733 130.178L53.6758 131.395C53.9758 131.915 54.5053 132.056 55.024 131.756C55.5428 131.457 55.6848 130.927 55.3853 130.408L54.7418 129.293C56.9658 127.974 58.4105 126.426 59.0394 124.691C59.6976 122.879 59.4994 121.04 58.4529 119.227C57.9024 118.274 57.1607 117.591 56.2472 117.195C55.3599 116.81 54.3174 116.654 53.1472 116.729ZM46.0993 118.272C45.7504 118.356 45.368 118.45 44.9544 118.553C44.2923 118.718 43.5463 118.844 42.7362 118.925C41.977 119.002 41.2373 118.913 40.5385 118.661C39.8741 118.422 39.3747 117.999 39.0097 117.367C38.4202 116.346 38.3366 115.275 38.7535 114.091C39.1547 112.954 40.1904 111.876 41.8331 110.881L46.1001 118.272L46.0993 118.272ZM58.0995 124.349C58.0918 124.37 58.0786 124.389 58.0704 124.409C58.137 124.234 58.1972 124.058 58.2454 123.884C58.2054 124.039 58.156 124.193 58.0995 124.349ZM57.1226 124.099C56.6257 125.374 55.4931 126.547 53.7557 127.583L49.1732 119.646L50.7558 119.239C51.5098 119.045 52.3029 118.905 53.1133 118.823C53.8726 118.746 54.6127 118.836 55.3106 119.087C55.976 119.327 56.4762 119.75 56.8407 120.381C57.5357 121.585 57.6276 122.802 57.1226 124.099Z" fill="#2B64F6"/>
</g>
<circle cx="7.5" cy="7.5" r="7.5" fill="#363B52"/>
<defs>
<clipPath id="clip0_93_2152">
<rect width="68" height="64" fill="white" transform="translate(12 90)"/>
</clipPath>
</defs>
</svg>
