<svg width="28" height="28" viewBox="0 0 28 28" fill="none" xmlns="http://www.w3.org/2000/svg">
<path d="M14 15.1377C16.6021 15.1377 18.7115 13.0283 18.7115 10.4262C18.7115 7.82404 16.6021 5.7146 14 5.7146C11.3979 5.7146 9.28842 7.82404 9.28842 10.4262C9.28842 13.0283 11.3979 15.1377 14 15.1377Z" fill="#474C5D"/>
<path d="M11.1219 24.5005C12.6041 26.3964 15.3959 26.3964 16.8781 24.5005C19.9643 20.5529 24.4265 14.1937 24.4265 10.4266C24.4265 4.66819 19.7584 0 14 0C8.24155 0 3.57336 4.66819 3.57336 10.4266C3.57336 14.1937 8.03569 20.5529 11.1219 24.5005ZM14 3.2273C17.9755 3.2273 21.1988 6.45006 21.1988 10.4261C21.1988 14.4022 17.9755 17.6249 14 17.6249C10.0245 17.6249 6.80124 14.4021 6.80124 10.4261C6.80124 6.45011 10.0245 3.2273 14 3.2273Z" fill="white"/>
</svg>
