<svg width="115" height="148" viewBox="0 0 115 148" fill="none" xmlns="http://www.w3.org/2000/svg">
<g clip-path="url(#clip0_93_2159)">
<path d="M48.3008 9.64485C49.2269 10.0748 50.1064 10.5669 50.947 11.1049C51.9412 11.4143 52.8613 11.7621 53.7429 12.1714C58.1719 14.2275 61.6514 17.576 64.027 21.6756C64.0275 21.6769 64.0289 21.6786 64.0294 21.68C65.2338 23.7594 66.1516 26.0333 66.7674 28.4306C66.7919 28.4893 66.8026 28.5494 66.8156 28.6117C67.3877 30.9037 67.6784 33.3076 67.6762 35.7608C67.6806 35.818 67.6804 35.873 67.6745 35.9309C67.6632 37.6412 67.5126 39.3739 67.2087 41.1114C67.2091 41.2175 67.183 41.3211 67.1485 41.4264C66.6637 44.0403 65.8458 46.6594 64.6605 49.2127C62.8064 53.2063 60.2588 56.6254 57.2763 59.3664C57.2459 59.3986 57.2168 59.428 57.1822 59.455C55.4083 61.0724 53.4809 62.4477 51.4547 63.561C51.3997 63.5917 51.3498 63.628 51.2899 63.6477C49.2452 64.7535 47.1013 65.5883 44.9123 66.1332C44.842 66.1635 44.7681 66.1755 44.6924 66.1888C39.5722 67.417 34.2179 67.0524 29.32 64.7786C28.4383 64.3693 27.5789 63.8909 26.7009 63.3312C25.7475 63.0363 24.8039 62.682 23.8778 62.2521C11.1242 56.3312 6.2267 39.715 12.9603 25.2108C19.6939 10.7066 35.5472 3.72397 48.3008 9.64485ZM56.7829 16.469C57.007 16.7605 57.2254 17.0571 57.4369 17.3592C57.5591 17.5328 57.6831 17.705 57.8005 17.8819C57.9797 18.1514 58.1492 18.4275 58.317 18.7049L60.063 19.5155C59.025 18.2795 57.8678 17.148 56.5667 16.1747C56.6429 16.2695 56.7085 16.3728 56.7829 16.469ZM47.6518 60.059L50.9053 61.5695C52.2299 60.8107 53.504 59.9259 54.7166 58.9288L51.2808 57.3337C50.9893 57.5887 50.6955 57.8393 50.3965 58.082C50.2675 58.1864 50.1371 58.2868 50.0072 58.3885C49.652 58.6668 49.292 58.9363 48.9274 59.197C48.7919 59.294 48.6584 59.3941 48.522 59.4884C48.2342 59.6855 47.9434 59.8725 47.6518 60.059ZM65.6609 36.447L62.1898 34.8355C62.1645 35.3056 62.1289 35.7764 62.0827 36.2488C62.0695 36.3794 62.0576 36.5095 62.0435 36.6396C61.993 37.0903 61.9318 37.5404 61.8625 37.9911L65.4054 39.6359C65.5511 38.5668 65.6348 37.5032 65.6609 36.447ZM62.8464 48.3705C63.1302 47.7591 63.3772 47.1417 63.6179 46.5236L60.0016 44.8447C59.9957 44.8597 59.989 44.8742 59.9832 44.8891C59.7447 45.4906 59.495 46.0902 59.2183 46.6861C59.0773 46.99 58.9266 47.2861 58.7773 47.5839L62.39 49.2611C62.5406 48.9628 62.7045 48.6761 62.8464 48.3705ZM57.8317 49.3499C57.62 49.7158 57.4 50.0734 57.1758 50.428C57.1591 50.4544 57.1443 50.4817 57.1276 50.5081C56.8259 50.9822 56.5127 51.4431 56.1912 51.8958L59.7684 53.5566C60.3588 52.748 60.9192 51.9067 61.4381 51.0242L57.8317 49.3499ZM61.4802 40.0187C61.4541 40.1366 61.4236 40.2547 61.3961 40.3732C61.3654 40.5034 61.3357 40.634 61.3028 40.7642C61.149 41.3852 60.9808 42.0039 60.7885 42.6225C60.7791 42.6523 60.7678 42.6812 60.7584 42.711C60.733 42.7919 60.7031 42.8728 60.6777 42.9536L64.2777 44.6249C64.5867 43.646 64.8579 42.665 65.0621 41.6815L61.4802 40.0187ZM54.9472 53.5233C54.8677 53.6209 54.7892 53.7212 54.7092 53.8175C54.6798 53.8523 54.6513 53.8898 54.6219 53.9247C54.2158 54.4076 53.7958 54.873 53.3669 55.3266C53.2762 55.4223 53.1845 55.5153 53.0937 55.6088C53.0138 55.6929 52.9339 55.7771 52.8531 55.8587L56.3478 57.4811C57.1005 56.76 57.8181 55.9884 58.5027 55.174L54.9472 53.5233ZM62.0935 30.2529C62.1095 30.4179 62.1192 30.5845 62.1325 30.7506C62.1688 31.1974 62.1952 31.6463 62.2119 32.0972C62.218 32.2621 62.2255 32.4265 62.2289 32.5924C62.2299 32.6116 62.2309 32.6308 62.231 32.6496L65.6315 34.2283C65.5457 32.6152 65.317 31.0371 64.9612 29.5071L61.7839 28.032C61.8208 28.2421 61.8591 28.4517 61.8912 28.6629C61.9722 29.1889 62.0404 29.7189 62.0935 30.2529ZM62.3437 22.7794L59.8376 21.6159C59.9712 21.9172 60.1043 22.2193 60.2269 22.5254C60.3301 22.7828 60.4245 23.0449 60.5189 23.307C60.6142 23.5696 60.7064 23.834 60.7942 24.1008C60.8787 24.3583 60.9657 24.6148 61.0431 24.8756C61.1124 25.1062 61.1729 25.3394 61.2356 25.5724L64.2306 26.9629C63.7268 25.4975 63.0996 24.0961 62.3437 22.7794ZM48.6563 62.7304L45.5434 61.2852C45.3786 61.3719 45.2147 61.459 45.048 61.5425C44.6145 61.7591 44.1775 61.9642 43.7366 62.1564C43.4874 62.2656 43.2362 62.3651 42.9841 62.4664C42.7236 62.5714 42.4621 62.6716 42.2 62.7683C42.0925 62.8076 41.9873 62.8536 41.8793 62.8917L44.6076 64.1583C45.982 63.8052 47.3363 63.327 48.6563 62.7304ZM34.2004 64.352C36.4836 64.8794 38.8221 64.9883 41.145 64.7558L38.9509 63.7372C38.7945 63.7726 38.6369 63.8009 38.4804 63.8341C38.2256 63.8867 37.9712 63.9406 37.7153 63.986C37.2448 64.0686 36.7725 64.1382 36.3003 64.1935C36.0894 64.218 35.8783 64.2335 35.6663 64.2531C35.2991 64.2866 34.9316 64.3111 34.5643 64.328C34.4432 64.3324 34.322 64.3489 34.2004 64.352ZM24.72 60.438C25.4402 60.7724 26.172 61.0603 26.9115 61.3055L27.2961 61.4223C27.3435 61.4366 27.3913 61.4499 27.4382 61.4651C27.7736 61.5668 28.111 61.6595 28.4499 61.744C28.4755 61.7505 28.5017 61.756 28.5282 61.7628C28.8581 61.8432 29.1881 61.9159 29.5197 61.9805C29.5661 61.9899 29.6128 61.9962 29.6592 62.0056C29.9696 62.0637 30.2816 62.1159 30.5933 62.1592C30.6845 62.1718 30.7756 62.1799 30.8672 62.1916C31.1357 62.2258 31.4051 62.2583 31.6742 62.2818C31.8864 62.2998 32.0996 62.3106 32.3125 62.3223C32.4626 62.3314 32.6133 62.344 32.7643 62.349C38.6006 62.5492 44.5299 60.3693 49.3988 56.3244C49.4359 56.2943 49.4712 56.261 49.5084 56.2309C49.7792 56.0038 50.0471 55.771 50.3113 55.532C50.4081 55.4446 50.5025 55.3529 50.5979 55.2637C50.7996 55.0762 50.9995 54.8879 51.1966 54.6938C51.3166 54.5754 51.4348 54.4538 51.5525 54.3332C51.7216 54.1614 51.8888 53.9888 52.0537 53.8117C52.183 53.6733 52.3104 53.5318 52.4379 53.3903C52.5883 53.2231 52.7368 53.055 52.8836 52.8839C53.0138 52.7316 53.1427 52.5775 53.271 52.4221C53.4102 52.253 53.5484 52.0812 53.6847 51.9086C53.8116 51.747 53.9379 51.584 54.0616 51.4198C54.1934 51.2451 54.3234 51.0673 54.4515 50.8886C54.5724 50.7209 54.6932 50.5532 54.8113 50.382C54.9397 50.1958 55.0652 50.006 55.1903 49.8149C55.3018 49.6461 55.4132 49.4774 55.5214 49.306C55.651 49.1005 55.7751 48.8902 55.901 48.6807C55.9983 48.5186 56.0965 48.3569 56.1915 48.1927C56.3304 47.9506 56.4632 47.7025 56.596 47.4544C56.6703 47.3157 56.7478 47.1797 56.8207 47.0394C57.02 46.6457 57.2165 46.2485 57.4043 45.844C57.5921 45.4394 57.7687 45.033 57.938 44.6254C57.9982 44.4792 58.0521 44.3322 58.1101 44.186C58.2139 43.9244 58.3173 43.6637 58.413 43.4005C58.4781 43.2224 58.5373 43.0426 58.5983 42.8636C58.6779 42.6327 58.7576 42.4018 58.831 42.1701C58.892 41.9769 58.949 41.7828 59.006 41.5888C59.0708 41.3708 59.1347 41.1524 59.1946 40.9332C59.2492 40.7326 59.2993 40.532 59.3494 40.3315C59.4022 40.1179 59.4551 39.9043 59.5035 39.6908C59.5496 39.4895 59.592 39.2887 59.6336 39.0875C59.6775 38.8719 59.7204 38.6559 59.7589 38.4401C59.7948 38.2417 59.8293 38.0438 59.8616 37.8461C59.8976 37.6235 59.9301 37.4016 59.9608 37.1788C59.9884 36.991 60.0143 36.8023 60.0366 36.6142C60.0654 36.374 60.0884 36.1344 60.1114 35.8948C60.1276 35.727 60.1442 35.5583 60.1572 35.3902C60.1783 35.1144 60.1931 34.8402 60.2062 34.5651C60.2127 34.4347 60.221 34.3029 60.2261 34.173C60.2382 33.817 60.2431 33.4621 60.2418 33.1087C60.2422 33.0603 60.2435 33.0124 60.2425 32.9646C60.1904 26.634 58.0286 20.6989 54.109 16.3699C54.0074 16.2588 53.9014 16.1522 53.7971 16.0421C53.6507 15.887 53.5057 15.7315 53.3542 15.5807C53.1625 15.3903 52.9639 15.2054 52.7644 15.0224C52.6973 14.9604 52.6314 14.8956 52.563 14.8341C52.3287 14.6239 52.0874 14.4193 51.8427 14.2197C51.8061 14.1894 51.7707 14.1587 51.7336 14.1293C51.4702 13.9177 51.2016 13.7126 50.9274 13.5125C50.9059 13.497 50.8849 13.4806 50.8625 13.4647C50.5801 13.2608 50.2916 13.063 49.9966 12.872C49.9551 12.845 49.914 12.8171 49.8721 12.791L49.5347 12.5726C48.871 12.1664 48.1788 11.7932 47.4586 11.4589C35.7054 6.00247 21.0434 12.5492 14.7743 26.053C8.5052 39.5567 12.9668 54.9816 24.72 60.438Z" fill="#8E92B6"/>
<path d="M65.9918 31.3542C64.9349 23.4243 60.739 18.435 55.8161 15.5601C58.3275 19.2609 61.0365 24.4484 61.3996 30.9575C61.7627 37.4666 57.9737 50.6698 52.5432 55.3412C46.8198 60.2646 35.2097 65.1976 32.2513 64.2243C32.1534 64.1867 32.0766 64.1546 32.0243 64.129C32.0931 64.1654 32.1688 64.1972 32.2513 64.2243C33.1648 64.575 35.92 65.403 37.8059 65.8805C40.4161 66.5415 46.2979 65.2532 52.4768 62.412C58.6556 59.5708 62.984 50.4188 64.5701 47.1809C66.1563 43.943 67.0486 39.2841 65.9918 31.3542Z" fill="#8E92B6"/>
<path d="M46.5257 36.6945C46.3153 36.816 46.1671 37.0274 46.0847 37.3347C45.4766 39.8313 43.8869 41.838 41.359 43.2975C39.3359 44.4655 37.2645 44.8797 35.2019 44.529C33.3256 44.2093 31.6428 43.3265 30.1925 41.9006L37.119 37.9016C37.6386 37.6016 37.7802 37.0729 37.4807 36.5542C37.1812 36.0354 36.6512 35.8934 36.1325 36.1929L28.8916 40.3734C28.6427 40.0322 28.3857 39.6332 28.1247 39.1811C27.8582 38.7195 27.631 38.278 27.4462 37.8639L35.2474 33.3599C35.767 33.0599 35.9082 32.5304 35.6087 32.0116C35.3092 31.4929 34.7796 31.3517 34.2609 31.6512L26.7724 35.9747C26.2644 34.0209 26.3028 32.1455 26.888 30.3931C27.5276 28.4788 28.7097 27.0123 30.4011 26.0358C32.1097 25.0493 34.016 24.645 36.0608 24.8328C36.9084 24.9208 37.7186 25.0881 38.4697 25.3311L39.5112 27.135C39.8112 27.6546 40.3407 27.7958 40.8603 27.4958C41.3791 27.1963 41.5202 26.6668 41.2207 26.148L38.1362 20.8055C37.8362 20.2859 37.3076 20.1442 36.7888 20.4437C36.2683 20.7442 36.1272 21.2737 36.4267 21.7925L37.0832 22.9296C34.3537 22.494 31.8554 22.9168 29.6531 24.1883C27.3408 25.5233 25.7721 27.4243 24.9919 29.8389C24.2572 32.1164 24.2683 34.5175 25.026 36.9818L23.293 37.9824C22.7734 38.2824 22.6318 38.811 22.9313 39.3298C23.2308 39.8485 23.7599 39.991 24.2795 39.691L25.7319 38.8525C25.9218 39.2694 26.1507 39.71 26.4147 40.1672C26.6727 40.6141 26.9274 41.0132 27.1773 41.362L25.1655 42.5235C24.6459 42.8235 24.5047 43.353 24.8042 43.8718C25.1037 44.3905 25.6324 44.5322 26.152 44.2322L28.4444 42.9087C30.2284 44.8347 32.3552 46.0305 34.7743 46.4664C37.3229 46.9267 39.8704 46.4351 42.3463 45.0056C45.2259 43.3431 47.1218 40.931 47.9852 37.8344C48.0799 37.4865 47.9982 37.2369 47.9132 37.0897C47.7477 36.803 47.4118 36.6852 47.1754 36.6219C46.8787 36.5438 46.6582 36.618 46.5257 36.6945Z" fill="#8E92B6"/>
</g>
<circle cx="107.5" cy="140.5" r="7.5" fill="#363B52"/>
<defs>
<clipPath id="clip0_93_2159">
<rect width="80" height="70" fill="white"/>
</clipPath>
</defs>
</svg>
